<?xml version="1.0" encoding="UTF-8" standalone="no"?>
<svg
   xmlns:dc="http://purl.org/dc/elements/1.1/"
   xmlns:cc="http://creativecommons.org/ns#"
   xmlns:rdf="http://www.w3.org/1999/02/22-rdf-syntax-ns#"
   xmlns:svg="http://www.w3.org/2000/svg"
   xmlns="http://www.w3.org/2000/svg"
   xmlns:sodipodi="http://sodipodi.sourceforge.net/DTD/sodipodi-0.dtd"
   xmlns:inkscape="http://www.inkscape.org/namespaces/inkscape"
   sodipodi:docname="bin-iso.svg"
   inkscape:version="1.0beta1 (32d4812, 2019-09-19)"
   id="svg1285"
   version="1.1"
   viewBox="0 0 26.458333 39.687501"
   height="150"
   width="100">
  <defs
     id="defs1279" />
  <sodipodi:namedview
     units="px"
     inkscape:window-maximized="0"
     inkscape:window-y="25"
     inkscape:window-x="0"
     inkscape:window-height="847"
     inkscape:window-width="1440"
     showgrid="false"
     inkscape:document-rotation="0"
     inkscape:current-layer="layer1"
     inkscape:document-units="mm"
     inkscape:cy="227.94229"
     inkscape:cx="39.459589"
     inkscape:zoom="1.2870702"
     inkscape:pageshadow="2"
     inkscape:pageopacity="0.0"
     borderopacity="1.0"
     bordercolor="#666666"
     pagecolor="#ffffff"
     id="base" />
  <metadata
     id="metadata1282">
    <rdf:RDF>
      <cc:Work
         rdf:about="">
        <dc:format>image/svg+xml</dc:format>
        <dc:type
           rdf:resource="http://purl.org/dc/dcmitype/StillImage" />
        <dc:title></dc:title>
      </cc:Work>
    </rdf:RDF>
  </metadata>
  <g
     id="layer1"
     inkscape:groupmode="layer"
     inkscape:label="Layer 1">
    <g
       id="g1601">
      <g
         id="g1567">
        <path
           sodipodi:nodetypes="cccccc"
           inkscape:connector-curvature="0"
           id="path1353"
           d="m 7.94881,35.870973 4.36951,2.565714 c 1.069624,0.596457 2.145753,-0.02305 3.456926,-0.781952 l 5.610886,-3.197774 c 0.713781,-0.397197 0.979436,-0.759033 1.046787,-1.834275 L 25.0851,12.055732"
           style="opacity:1;fill:none;stroke:#000000;stroke-width:0.246773px;stroke-linecap:butt;stroke-linejoin:miter;stroke-opacity:1;stop-opacity:1" />
        <path
           sodipodi:nodetypes="cc"
           inkscape:connector-curvature="0"
           id="path1357"
           d="M 2.2681681,12.226439 4.4380683,30.751422"
           style="opacity:1;fill:none;stroke:#000000;stroke-width:0.246773px;stroke-linecap:butt;stroke-linejoin:miter;stroke-opacity:1;stop-opacity:1" />
      </g>
      <g
         id="g1581">
        <path
           sodipodi:nodetypes="cccccccccccccc"
           inkscape:connector-curvature="0"
           id="path1355"
           d="m 1.2021273,6.7316527 c -0.189913,0.029529 -0.21712416,0.677568 -0.21712416,0.677568 -0.83244073,-0.1612506 -1.27121069,1.2661126 -0.33559883,1.5452614 0,0 -0.21642556,1.1749379 0.59931729,1.7234139 l 0.1404189,0.980283 11.1503825,6.031055 c 1.007126,0.58382 1.706144,0.456663 2.71327,-0.21807 L 25.55156,11.839418 25.730341,10.974934 C 26.185794,10.163291 26.971926,8.6504408 25.404572,7.5299058 L 14.060587,1.2767222 C 12.053404,1.3278242 12.914872,0.51594457 11.36994,1.5033626 L 10.61278,1.0576945 Z"
           style="opacity:1;fill:none;stroke:#000000;stroke-width:0.246773px;stroke-linecap:butt;stroke-linejoin:miter;stroke-opacity:1;stop-opacity:1" />
        <path
           sodipodi:nodetypes="cccc"
           inkscape:connector-curvature="0"
           id="path1361"
           d="M 25.857647,10.828209 14.9758,16.78724 c -0.937873,0.454056 -1.611912,0.411011 -2.49462,-0.0098 L 1.3370854,10.742993"
           style="opacity:1;fill:none;stroke:#000000;stroke-width:0.246773px;stroke-linecap:butt;stroke-linejoin:miter;stroke-opacity:1;stop-opacity:1" />
        <path
           style="opacity:1;fill:none;stroke:#000000;stroke-width:0.246773px;stroke-linecap:butt;stroke-linejoin:miter;stroke-opacity:1;stop-opacity:1"
           d="m 25.720253,7.8215387 c 0.318062,0.6114403 0.40425,1.4301547 -0.305497,1.8131928 L 15.080709,15.643131 c -0.81967,0.477698 -1.815742,0.509187 -3.011709,-0.23962 L 0.69370885,8.9926225"
           id="path1449"
           inkscape:connector-curvature="0"
           sodipodi:nodetypes="ccccc" />
        <path
           sodipodi:nodetypes="ccccc"
           inkscape:connector-curvature="0"
           id="path1451"
           d="M 10.813364,1.7896362 2.4291985,6.7356297 2.9691036,7.0251454 11.354834,2.0760199 Z"
           style="opacity:1;fill:none;stroke:#000000;stroke-width:0.246773px;stroke-linecap:butt;stroke-linejoin:miter;stroke-opacity:1;stop-opacity:1" />
        <path
           sodipodi:nodetypes="cccccccccc"
           inkscape:connector-curvature="0"
           id="path1453"
           d="M 12.56923,2.1816515 3.7179279,7.3561265 C 3.3595771,7.632023 3.1036867,7.9315641 3.8133894,8.4539337 l 8.4483286,4.8685293 c 1.172531,0.638122 1.87149,0.604503 3.054762,0 L 23.669349,8.5971246 C 24.448759,7.7666873 23.625989,7.5771231 23.239773,7.2129365 L 14.266406,2.1534834 C 13.496248,1.7286589 13.098223,1.97491 12.56923,2.1816505 Z"
           style="opacity:1;fill:none;stroke:#000000;stroke-width:0.246773px;stroke-linecap:butt;stroke-linejoin:miter;stroke-opacity:1;stop-opacity:1" />
        <path
           sodipodi:nodetypes="cccccc"
           inkscape:connector-curvature="0"
           id="path1455"
           d="m 3.3658149,7.9335918 0.062593,1.2824663 8.6423831,5.0132849 c 1.323437,0.741699 2.146099,0.523059 3.150226,0 l 8.686981,-5.1071804 c 0.162145,-0.3868985 0.154001,-0.5032495 0.0845,-1.2206572"
           style="opacity:1;fill:none;stroke:#000000;stroke-width:0.246773px;stroke-linecap:butt;stroke-linejoin:miter;stroke-opacity:1;stop-opacity:1" />
      </g>
      <g
         id="g1553">
        <path
           sodipodi:nodetypes="ccc"
           inkscape:connector-curvature="0"
           id="path1457"
           d="M 3.6092138,31.317897 C 6.304886,29.662518 9.2531992,34.747323 6.9610926,36.61045 4.6711274,38.103231 1.1221931,33.272639 3.6092138,31.317897 Z"
           style="opacity:1;fill:none;stroke:#000000;stroke-width:0.246773px;stroke-linecap:butt;stroke-linejoin:miter;stroke-opacity:1;stop-opacity:1" />
        <path
           sodipodi:nodetypes="cccc"
           inkscape:connector-curvature="0"
           id="path1459"
           d="M 3.370539,31.520354 C 3.6709885,31.151017 5.6506829,29.755129 7.2122459,31.144195 8.971077,32.930468 8.8544388,34.74193 8.20199,35.662347 7.9248586,36.027078 7.2765071,36.478585 6.9123727,36.616268"
           style="opacity:1;fill:none;stroke:#000000;stroke-width:0.246773px;stroke-linecap:butt;stroke-linejoin:miter;stroke-opacity:1;stop-opacity:1" />
        <path
           sodipodi:nodetypes="ccc"
           inkscape:connector-curvature="0"
           id="path1461"
           d="M 4.397419,32.86609 C 5.7610619,31.938518 6.848381,34.649693 5.9789853,35.239769 4.9259499,35.941511 3.5154199,33.544586 4.397419,32.86609 Z"
           style="opacity:1;fill:none;stroke:#000000;stroke-width:0.246773px;stroke-linecap:butt;stroke-linejoin:miter;stroke-opacity:1;stop-opacity:1" />
      </g>
      <g
         id="g1561">
        <path
           sodipodi:nodetypes="ccccccccccc"
           inkscape:connector-curvature="0"
           id="path1488"
           d="m 20.011225,18.907797 -0.685336,1.653382 -1.146612,0.06674 0.889826,-2.05047 1.583231,-0.963799 0.505928,0.267414 0.295894,-0.400911 -0.271238,1.593015 -1.076042,0.450649 0.200246,-0.366045 z"
           style="opacity:1;fill:none;stroke:#000000;stroke-width:0.246773px;stroke-linecap:butt;stroke-linejoin:miter;stroke-opacity:1;stop-opacity:1" />
        <path
           sodipodi:nodetypes="ccccccccccc"
           inkscape:connector-curvature="0"
           id="path1490"
           d="m 20.978851,19.934941 0.837107,-1.164044 0.545034,0.850717 -0.661099,2.166955 -0.917886,0.474884 0.06674,0.569694 -0.657699,-0.696385 0.425572,-1.438265 0.05271,0.470642 0.914486,-0.657278 z"
           style="opacity:1;fill:none;stroke:#000000;stroke-width:0.246773px;stroke-linecap:butt;stroke-linejoin:miter;stroke-opacity:1;stop-opacity:1" />
        <path
           sodipodi:nodetypes="ccccccccccc"
           inkscape:connector-curvature="0"
           id="path1492"
           d="m 19.772714,21.865945 0.03146,1.315394 -1.388949,0.984637 -0.956996,-0.897052 0.284846,-1.343035 -0.337563,-0.02126 1.238019,-0.889826 0.454049,0.896208 -0.454049,-0.0063 -0.168362,0.776741 z"
           style="opacity:1;fill:none;stroke:#000000;stroke-width:0.246773px;stroke-linecap:butt;stroke-linejoin:miter;stroke-opacity:1;stop-opacity:1" />
      </g>
    </g>
  </g>
</svg>
