<?xml version="1.0" encoding="UTF-8" standalone="no"?>
<svg
   xmlns:dc="http://purl.org/dc/elements/1.1/"
   xmlns:cc="http://creativecommons.org/ns#"
   xmlns:rdf="http://www.w3.org/1999/02/22-rdf-syntax-ns#"
   xmlns:svg="http://www.w3.org/2000/svg"
   xmlns="http://www.w3.org/2000/svg"
   xmlns:sodipodi="http://sodipodi.sourceforge.net/DTD/sodipodi-0.dtd"
   xmlns:inkscape="http://www.inkscape.org/namespaces/inkscape"
   height="500"
   width="500"
   inkscape:version="1.0beta1 (32d4812, 2019-09-19)"
   sodipodi:docname="building iso collection.svg"
   id="svg66"
   xml:space="preserve"
   viewBox="0 0 500 500"
   y="0px"
   x="0px"
   version="1.1">
  <metadata
     id="metadata72">
    <rdf:RDF>
      <cc:Work
         rdf:about="">
        <dc:format>image/svg+xml</dc:format>
        <dc:type
           rdf:resource="http://purl.org/dc/dcmitype/StillImage" />
        <dc:title></dc:title>
      </cc:Work>
    </rdf:RDF>
  </metadata>
  <defs
     id="defs70" />
  <sodipodi:namedview
     inkscape:current-layer="g286"
     inkscape:window-maximized="0"
     inkscape:window-y="80"
     inkscape:window-x="1560"
     inkscape:cy="291.89834"
     inkscape:cx="304.13751"
     inkscape:zoom="0.96334559"
     showgrid="false"
     id="namedview68"
     inkscape:window-height="1022"
     inkscape:window-width="1175"
     inkscape:pageshadow="2"
     inkscape:pageopacity="0"
     guidetolerance="10"
     gridtolerance="10"
     objecttolerance="10"
     borderopacity="1"
     inkscape:document-rotation="0"
     bordercolor="#666666"
     pagecolor="#ffffff" />
  <g
     transform="matrix(0.38527243,0,0,0.38527243,55.876345,2.0921047)"
     id="g286">
    <g
       id="g165"
       transform="matrix(0.87506567,0,0,0.87506567,411.04657,29.55217)">
      <path
         id="path153"
         d="m 847.6,630.2 c 0,-0.3 0,-0.6 -0.1,-0.8 0,0 0,0 0,0 -0.1,-0.3 -0.2,-0.5 -0.3,-0.7 0,-0.1 -0.1,-0.1 -0.1,-0.2 -0.1,-0.2 -0.2,-0.3 -0.4,-0.5 -0.1,-0.1 -0.1,-0.1 -0.2,-0.2 -0.2,-0.2 -0.4,-0.4 -0.7,-0.5 l -41.2,-23.8 v -296 c 0,0 0,-0.1 0,-0.1 0,-0.3 0,-0.6 -0.1,-0.8 0,0 0,0 0,0 -0.1,-0.3 -0.2,-0.5 -0.3,-0.8 0,-0.1 -0.1,-0.1 -0.1,-0.2 -0.1,-0.2 -0.2,-0.3 -0.4,-0.5 -0.1,-0.1 -0.1,-0.1 -0.2,-0.2 -0.2,-0.2 -0.4,-0.4 -0.7,-0.5 v 0 c 0,0 0,0 0,0 0,0 0,0 0,0 L 523.3,143.1 c -1.1,-0.6 -2.5,-0.6 -3.6,0 l -301,173.8 c -0.3,0.1 -0.5,0.3 -0.7,0.5 -0.1,0.1 -0.1,0.1 -0.2,0.2 -0.1,0.2 -0.3,0.3 -0.4,0.5 0,0.1 -0.1,0.1 -0.1,0.2 -0.1,0.2 -0.2,0.5 -0.3,0.7 0,0 0,0 0,0 -0.1,0.3 -0.1,0.6 -0.1,0.8 0,0 0,0.1 0,0.1 v 271 l -62.7,36.2 c -0.3,0.1 -0.5,0.3 -0.7,0.5 -0.1,0.1 -0.1,0.1 -0.2,0.2 -0.1,0.2 -0.3,0.3 -0.4,0.5 0,0.1 -0.1,0.1 -0.1,0.2 -0.1,0.2 -0.2,0.5 -0.3,0.7 0,0 0,0 0,0 -0.1,0.3 -0.1,0.6 -0.1,0.8 0,0 0,0.1 0,0.1 v 24.8 c 0,1.3 0.7,2.5 1.8,3.1 l 344,198.6 c 0.6,0.3 1.2,0.5 1.8,0.5 0.6,0 1.2,-0.2 1.8,-0.5 L 845.8,658 c 1.1,-0.6 1.8,-1.8 1.8,-3.1 v -24.7 c 0,0.1 0,0.1 0,0 z m -93.2,22.9 -57.3,33.1 V 520.7 l 57.3,-33.1 z m 5.4,-174.8 c -1.1,-0.6 -2.5,-0.6 -3.6,0 l -64.5,37.2 c -1.1,0.6 -1.8,1.8 -1.8,3.1 V 690.3 L 654.1,711 V 396.9 L 797.4,313.7 V 628.2 L 761.6,649 V 481.4 c 0,-1.3 -0.7,-2.5 -1.8,-3.1 z M 521.5,150.4 793.8,307.6 650.6,390.7 523.2,317 c 0,0 -0.1,0 -0.1,0 -0.2,-0.1 -0.5,-0.2 -0.8,-0.3 0,0 0,0 -0.1,0 -0.3,-0.1 -0.5,-0.1 -0.8,-0.1 -0.1,0 -0.2,0 -0.3,0 -0.2,0 -0.4,0 -0.6,0.1 -0.1,0 -0.2,0 -0.3,0.1 -0.3,0.1 -0.5,0.2 -0.7,0.3 0,0 0,0 0,0 0,0 0,0 0,0 L 371,402.8 227.7,320 Z m 3.6,490.3 V 326.2 l 121.8,70.5 V 711 Z m -43,78.6 57.3,-33.1 v 16.5 l -57.3,33.1 z m -3.6,-6.2 -14.3,-8.3 57.3,-33.1 14.3,8.3 z M 224.1,640.7 V 326.2 l 143.3,82.7 V 723.5 Z M 374.5,409 517.9,326.2 v 310.3 l -14.4,-8.3 v -22.8 c 0,0 0,-0.1 0,-0.1 0,-0.3 0,-0.6 -0.1,-0.8 0,0 0,0 0,0 -0.1,-0.3 -0.2,-0.5 -0.3,-0.7 0,-0.1 -0.1,-0.1 -0.1,-0.2 -0.1,-0.2 -0.2,-0.3 -0.4,-0.5 -0.1,-0.1 -0.1,-0.1 -0.2,-0.2 -0.2,-0.2 -0.4,-0.4 -0.7,-0.5 0,0 0,0 0,0 0,0 0,0 0,0 L 482.1,591 V 419.3 c 0,-1.3 -0.7,-2.5 -1.8,-3.1 -1.1,-0.6 -2.5,-0.6 -3.6,0 l -21.3,12.3 c -0.2,0.1 -0.3,0.2 -0.5,0.3 l -42.7,24.7 c -1.1,0.6 -1.8,1.8 -1.8,3.1 v 173.8 72.4 l -35.9,20.8 z m 64.6,235.8 57.3,-33.1 v 16.6 l -57.3,33.1 z m 60.9,-10.3 14.3,8.3 -57.3,33.1 -14.3,-8.3 z m -39.4,64.1 V 682.1 L 518,649 v 16.6 z m 14.3,-273.1 v 161.4 l -14.4,-8.3 V 433.8 Z M 453.4,549.6 417.6,529 V 458.7 L 453.4,438 Z m -35.8,-12.4 35.8,20.7 v 22.8 c 0,1.3 0.7,2.5 1.8,3.1 l 16.1,9.3 -53.7,31 z m 60.9,60 14.3,8.3 -57.3,33.1 -14.3,-8.3 z m -60.9,39.3 14.3,8.3 v 22.8 c 0,0 0,0.1 0,0.1 0,0.2 0,0.4 0.1,0.6 0,0.1 0,0.2 0.1,0.2 0.1,0.3 0.2,0.5 0.3,0.8 0.2,0.3 0.4,0.5 0.6,0.8 0.1,0.1 0.3,0.2 0.5,0.4 0.1,0.1 0.2,0.2 0.3,0.2 v 0 c 0,0 0,0 0,0 l 19.7,11.4 v 22.7 c 0,0 0,0.1 0,0.1 0,0.2 0,0.4 0.1,0.7 0,0.1 0,0.1 0,0.2 0.1,0.3 0.2,0.5 0.3,0.8 0,0.1 0.1,0.1 0.1,0.2 0.1,0.2 0.3,0.4 0.5,0.6 0.1,0.1 0.3,0.2 0.5,0.4 0.1,0.1 0.2,0.2 0.3,0.2 L 475,719.4 V 736 l -57.3,-33.1 z m -198.9,9.4 150.4,87 c 0,0 0.1,0 0.1,0.1 0.2,0.1 0.4,0.2 0.6,0.2 0.1,0 0.1,0 0.2,0.1 0.3,0.1 0.6,0.1 0.8,0.1 0.3,0 0.6,0 0.8,-0.1 0.1,0 0.1,0 0.2,-0.1 0.2,-0.1 0.4,-0.2 0.6,-0.3 0,0 0.1,0 0.1,-0.1 l 41.3,-23.9 62.7,36.2 c 0,0 0,0 0,0 0.2,0.1 0.4,0.2 0.7,0.3 0.1,0 0.1,0.1 0.2,0.1 0.2,0.1 0.4,0.1 0.6,0.1 0.1,0 0.2,0 0.3,0 0,0 0,0 0,0 0,0 0,0 0,0 0.6,0 1.2,-0.2 1.8,-0.5 l 64.5,-37.2 c 1.1,-0.6 1.8,-1.8 1.8,-3.1 V 680 c 0,0 0,-0.1 0,-0.1 0,-0.3 0,-0.6 -0.1,-0.8 0,0 0,0 0,0 -0.1,-0.3 -0.2,-0.5 -0.3,-0.7 0,-0.1 -0.1,-0.1 -0.1,-0.2 -0.1,-0.2 -0.2,-0.3 -0.4,-0.5 -0.1,-0.1 -0.1,-0.1 -0.2,-0.2 -0.2,-0.2 -0.4,-0.4 -0.7,-0.5 L 524.9,665.6 V 649 l 123.6,71.4 c 0.6,0.3 1.2,0.5 1.8,0.5 0,0 0,0 0,0 0,0 0,0 0,0 0.1,0 0.2,0 0.3,0 0.2,0 0.4,0 0.6,-0.1 0.1,0 0.1,-0.1 0.2,-0.1 0.2,-0.1 0.5,-0.2 0.7,-0.3 0,0 0,0 0,0 l 150.5,-86.9 c 1.1,-0.6 1.8,-1.8 1.8,-3.1 V 611.8 L 836.6,630.4 500,824.8 163.2,630.3 217,599.3 v 43.4 c -0.1,1.3 0.6,2.5 1.7,3.2 z M 159.6,636.5 496.4,831 v 16.6 L 159.6,653.1 Z M 840.4,653.1 503.6,847.6 V 831 L 840.4,636.5 Z"
         inkscape:connector-curvature="0" />
      <path
         id="path155"
         d="m 261.7,323.1 21.5,12.4 c 0,0 0,0 0,0 l 85.9,49.6 c 0.6,0.3 1.2,0.5 1.8,0.5 0.6,0 1.2,-0.2 1.8,-0.5 l 148.8,-85.8 127.2,73.4 c 1.1,0.6 2.5,0.6 3.6,0 l 107.5,-62.1 c 1.1,-0.6 1.8,-1.8 1.8,-3.1 0,-1.3 -0.7,-2.5 -1.8,-3.1 L 523.3,168 c 0,0 -0.1,0 -0.1,-0.1 -0.2,-0.1 -0.4,-0.2 -0.6,-0.3 -0.1,0 -0.1,0 -0.2,-0.1 -0.3,-0.1 -0.6,-0.1 -0.8,-0.1 -0.3,0 -0.6,0 -0.8,0.1 -0.1,0 -0.1,0 -0.2,0.1 -0.2,0.1 -0.4,0.2 -0.6,0.3 0,0 -0.1,0 -0.1,0.1 l -258,149 c -1.1,0.6 -1.8,1.8 -1.8,3.1 0,1.3 0.5,2.4 1.6,3 z m 388.8,42.4 -127.2,-73.4 c -1.1,-0.6 -2.5,-0.6 -3.6,0 L 371,377.9 292.2,332.4 521.5,200 729.4,320 Z m 86,-49.7 L 525,193.8 V 177.2 L 750.7,307.5 Z M 517.9,177.3 v 16.6 L 285,328.3 270.7,320 Z"
         inkscape:connector-curvature="0" />
      <path
         id="path157"
         d="m 759.7,378.9 c -1.1,-0.6 -2.5,-0.6 -3.6,0 l -64.5,37.3 c -1.1,0.6 -1.8,1.8 -1.8,3.1 V 469 c 0,1.3 0.7,2.5 1.8,3.1 0.6,0.3 1.2,0.5 1.8,0.5 0.6,0 1.2,-0.2 1.8,-0.5 l 64.5,-37.3 c 0.1,-0.1 0.2,-0.2 0.3,-0.2 0.2,-0.1 0.3,-0.2 0.4,-0.3 0.2,-0.2 0.4,-0.5 0.6,-0.7 0,0 0,0 0,0 0,0 0,0 0,0 0,0 0,0 0,0 0.1,-0.2 0.2,-0.5 0.3,-0.8 0,-0.1 0,-0.1 0.1,-0.2 0,-0.2 0.1,-0.4 0.1,-0.6 0,0 0,-0.1 0,-0.1 v -49.6 c 0,-1.5 -0.7,-2.7 -1.8,-3.4 z m -5.3,46.6 -14.3,-8.2 v -20.7 l 14.3,-8.3 z m -21.5,-24.8 v 16.6 L 697.1,438 v -16.6 z m -35.8,45.5 39.4,-22.8 14.3,8.2 -53.7,31.1 z"
         inkscape:connector-curvature="0" />
      <path
         id="path159"
         d="m 329.8,577.6 -64.5,-37.2 c -1.1,-0.6 -2.5,-0.6 -3.6,0 -1.1,0.6 -1.8,1.8 -1.8,3.1 v 49.7 c 0,0 0,0.1 0,0.1 0,0.2 0,0.4 0.1,0.6 0,0.1 0,0.1 0.1,0.2 0.1,0.3 0.2,0.5 0.3,0.8 0,0 0,0 0,0 0,0 0,0 0,0 0,0 0,0 0,0 0.2,0.3 0.3,0.5 0.6,0.7 0.1,0.1 0.3,0.2 0.5,0.4 0.1,0.1 0.2,0.1 0.3,0.2 v 0 c 0,0 0,0 0,0 l 64.5,37.2 c 0.6,0.3 1.2,0.5 1.8,0.5 0.6,0 1.2,-0.2 1.8,-0.5 1.1,-0.6 1.8,-1.8 1.8,-3.1 v -49.7 c -0.1,-1.2 -0.8,-2.4 -1.9,-3 z m -5.4,21.7 -35.8,-20.7 V 562 l 35.8,20.7 z m -43,-41.4 v 20.7 l -14.3,8.3 v -37.2 z m -10.7,35.2 14.3,-8.3 39.4,22.8 v 16.5 z"
         inkscape:connector-curvature="0" />
      <path
         id="path161"
         d="m 331.6,504.9 v -23.5 c 0,-1.3 -0.7,-2.5 -1.8,-3.1 L 265.3,441 c -1.1,-0.6 -2.5,-0.6 -3.6,0 -1.1,0.6 -1.8,1.8 -1.8,3.1 v 49.7 c 0,0 0,0.1 0,0.1 0,0.2 0,0.4 0.1,0.6 0,0.1 0,0.1 0.1,0.2 0.1,0.3 0.2,0.5 0.3,0.8 0,0 0,0 0,0 0,0 0,0 0,0 0,0 0,0 0,0 0.2,0.3 0.3,0.5 0.6,0.7 0.1,0.1 0.3,0.2 0.4,0.3 0.1,0.1 0.2,0.2 0.3,0.2 v 0 c 0,0 0,0 0,0 l 64.5,37.2 c 0.6,0.3 1.2,0.5 1.8,0.5 0.6,0 1.2,-0.2 1.8,-0.5 1.1,-0.6 1.8,-1.8 1.8,-3.1 v -24 c 0.2,-0.5 0.2,-1.2 0,-1.9 z m -7.2,-5.2 -35.9,-20.4 v -16.5 l 35.9,20.7 z m -43,-41.1 v 20.7 l -14.3,8.3 v -37.2 z m -10.7,35.2 14.3,-8.3 39.4,22.4 v 16.9 z"
         inkscape:connector-curvature="0" />
      <path
         id="path163"
         d="M 611.1,617.7 V 419.3 c 0,-1.3 -0.7,-2.5 -1.8,-3.1 l -43,-24.8 c -1.1,-0.6 -2.5,-0.6 -3.6,0 -1.1,0.6 -1.8,1.8 -1.8,3.1 v 223.4 c 0,0 0,0.1 0,0.1 0,0.2 0,0.4 0.1,0.7 0,0.1 0,0.1 0,0.2 0.1,0.3 0.2,0.5 0.3,0.8 0,0 0.1,0.1 0.1,0.1 0.1,0.2 0.3,0.5 0.5,0.7 0.2,0.2 0.3,0.3 0.5,0.4 0.1,0.1 0.1,0.1 0.2,0.2 v 0 c 0,0 0,0 0,0 l 43,24.8 c 0.6,0.3 1.2,0.5 1.8,0.5 0.6,0 1.2,-0.2 1.8,-0.5 1.1,-0.6 1.8,-1.8 1.8,-3.1 v -25.1 c 0.1,0 0.1,0 0.1,0 z m -7.2,-6 -14.3,-8.3 V 413.1 l 14.3,8.3 z M 582.4,409 v 194.5 l -14.3,8.3 v -211 z m -10.7,208.9 14.3,-8.3 17.9,10.3 v 16.6 z"
         inkscape:connector-curvature="0" />
    </g>
    <rect
       style="opacity:1;fill:#ffffff;stroke-width:11.482"
       id="rect246"
       width="126.95691"
       height="483.80185"
       x="529.46906"
       y="240.76518" />
    <g
       id="g60"
       transform="matrix(0.892689,0,0,0.892689,16.354197,107.27881)">
      <path
         d="m 847.6,772.9 c 0,-0.3 0,-0.6 -0.1,-0.8 0,0 0,0 0,0 -0.1,-0.3 -0.2,-0.5 -0.3,-0.7 0,-0.1 -0.1,-0.1 -0.1,-0.2 -0.1,-0.2 -0.2,-0.3 -0.4,-0.5 -0.1,-0.1 -0.1,-0.1 -0.2,-0.2 -0.2,-0.2 -0.4,-0.4 -0.7,-0.5 L 718.6,696.5 V 599.3 152.4 c 0,0 0,-0.1 0,-0.1 0,-0.2 0,-0.4 -0.1,-0.6 0,-0.1 0,-0.1 -0.1,-0.2 -0.1,-0.3 -0.2,-0.5 -0.3,-0.8 0,0 0,0 0,0 -0.1,-0.2 -0.3,-0.5 -0.5,-0.7 -0.1,-0.1 -0.1,-0.1 -0.2,-0.2 -0.2,-0.2 -0.3,-0.3 -0.5,-0.4 0,0 -0.1,-0.1 -0.1,-0.1 L 458.5,0.5 c -1.1,-0.6 -2.5,-0.6 -3.6,0 L 240.2,124.4 c -0.3,0.1 -0.5,0.3 -0.7,0.5 -0.1,0.1 -0.1,0.1 -0.2,0.2 -0.1,0.2 -0.3,0.3 -0.4,0.5 0,0.1 -0.1,0.1 -0.1,0.2 -0.1,0.2 -0.2,0.5 -0.3,0.7 0,0 0,0 0,0 -0.1,0.3 -0.1,0.6 -0.1,0.8 0,0 0,0.1 0,0.1 v 593.7 l -84.2,48.6 c -0.3,0.1 -0.5,0.3 -0.7,0.5 -0.1,0.1 -0.1,0.1 -0.2,0.2 -0.1,0.2 -0.3,0.3 -0.4,0.5 0,0.1 -0.1,0.1 -0.1,0.2 -0.1,0.2 -0.2,0.5 -0.3,0.7 0,0 0,0 0,0 -0.1,0.3 -0.1,0.6 -0.1,0.8 0,0 0,0.1 0,0.1 v 24.8 c 0,1.3 0.7,2.5 1.8,3.1 l 344,198.6 c 0.6,0.3 1.2,0.5 1.8,0.5 0.6,0 1.2,-0.2 1.8,-0.5 l 344,-198.6 c 1.1,-0.6 1.8,-1.8 1.8,-3.1 v -24.6 c 0,0.1 0,0 0,0 z M 695.3,683 c -1.1,-0.6 -2.5,-0.6 -3.6,0 l -64.3,37.1 c 0,0 -0.1,0.1 -0.1,0.1 l -21.8,12.6 c -1.1,0.6 -1.8,1.8 -1.8,3.1 v 146.7 l -14.2,8.3 V 675.8 L 711.3,605.4 V 820.6 L 697,828.9 V 686.1 c 0.1,-1.3 -0.6,-2.5 -1.7,-3.1 z m -19.7,137.6 v -120 l 14.3,-8.3 V 828.8 Z M 668.4,742 636.2,723.4 668.4,704.8 Z M 546.6,870.2 V 655.1 l 35.8,20.7 V 890.9 Z M 245.6,746.1 V 133.7 L 496.4,278.5 V 890.9 Z M 711.4,593 673.8,571.3 c -1.1,-0.6 -2.5,-0.6 -3.6,0 l -129,74.5 c 0,0 0,0 0,0 0,0 0,0 0,0 -0.2,0.1 -0.5,0.3 -0.6,0.5 -0.1,0.1 -0.1,0.1 -0.2,0.2 -0.1,0.2 -0.3,0.3 -0.4,0.5 0,0.1 -0.1,0.1 -0.1,0.2 -0.1,0.2 -0.2,0.5 -0.3,0.7 0,0 0,0 0,0 -0.1,0.3 -0.1,0.6 -0.1,0.8 0,0 0,0.1 0,0.1 v 221.4 l -35.8,20.7 V 278.5 l 207.8,-120 V 593 Z M 586,669.6 550.2,648.9 672,578.5 707.8,599.2 Z M 456.7,7.7 707.8,152.3 500,272.3 249.2,127.5 Z m -216.5,743.6 258,149 c 0,0 0.1,0 0.1,0.1 0.2,0.1 0.4,0.2 0.6,0.3 0.1,0 0.1,0 0.2,0.1 0.3,0.1 0.6,0.1 0.8,0.1 0.2,0 0.6,0 0.8,-0.1 0.1,0 0.1,0 0.2,-0.1 0.2,-0.1 0.4,-0.1 0.6,-0.3 0,0 0.1,0 0.1,-0.1 l 41.2,-23.8 41.2,23.8 c 0,0 0.1,0 0.1,0.1 0.2,0.1 0.4,0.2 0.6,0.3 0.1,0 0.1,0 0.2,0.1 0.3,0.1 0.6,0.1 0.8,0.1 0.3,0 0.6,0 0.9,-0.1 0.1,0 0.1,0 0.2,-0.1 0.2,-0.1 0.4,-0.2 0.6,-0.3 0,0 0.1,0 0.1,-0.1 l 21.3,-12.5 c 1.1,-0.6 1.8,-1.8 1.8,-3.1 V 737.9 l 18.1,-10.4 39.4,22.8 v 72.4 c 0,1.3 0.7,2.5 1.8,3.1 l 21.5,12.4 c 0.6,0.3 1.2,0.5 1.8,0.5 0.3,0 0.6,0 0.9,-0.1 0,0 0.1,0 0.1,-0.1 0.3,-0.1 0.5,-0.2 0.7,-0.3 0,0 0,0 0,0 l 21.5,-12.4 c 1.1,-0.6 1.8,-1.8 1.8,-3.1 v -118 L 836.8,773 500,967.5 163.2,773 238.5,729.6 v 18.6 c -0.1,1.2 0.6,2.4 1.7,3.1 z m -80.6,27.9 336.8,194.5 v 16.6 L 159.6,795.7 Z M 840.4,795.7 503.6,990.2 V 973.6 L 840.4,779.1 Z"
         id="path24"
         inkscape:connector-curvature="0" />
      <path
         d="m 283.2,130.6 215,124.1 c 0.6,0.3 1.2,0.5 1.8,0.5 0.6,0 1.2,-0.2 1.8,-0.5 l 172,-99.3 c 1.1,-0.6 1.8,-1.8 1.8,-3.1 0,-1.3 -0.7,-2.5 -1.8,-3.1 L 458.8,25.1 c 0,0 -0.1,0 -0.1,-0.1 -0.2,-0.1 -0.4,-0.2 -0.6,-0.3 -0.1,0 -0.1,-0.1 -0.2,-0.1 -0.3,-0.1 -0.5,-0.1 -0.8,-0.1 0,0 0,0 0,0 -0.3,0 -0.6,0 -0.8,0.1 -0.1,0 -0.1,0 -0.2,0.1 -0.2,0.1 -0.4,0.1 -0.6,0.3 0,0 -0.1,0 -0.1,0.1 l -172,99.3 c -1.1,0.6 -1.8,1.8 -1.8,3.1 -0.2,1.3 0.5,2.5 1.6,3.1 z M 500,247.5 313.7,139.9 457,57.2 643.2,164.9 Z M 650.3,160.7 460.6,51 V 34.4 L 664.8,152.3 Z M 453.4,34.4 V 51 l -146.9,84.8 -14.3,-8.3 z"
         id="path26"
         inkscape:connector-curvature="0" />
      <path
         d="m 587.8,521.6 c -1.1,-0.6 -2.5,-0.6 -3.6,0 l -43,24.8 c -1.1,0.6 -1.8,1.8 -1.8,3.1 v 49.6 c 0,1.3 0.7,2.5 1.8,3.1 0.6,0.3 1.2,0.5 1.8,0.5 0.6,0 1.2,-0.2 1.8,-0.5 l 43,-24.8 c 0,0 0,0 0,0 v 0 c 0.1,-0.1 0.2,-0.1 0.2,-0.2 0.2,-0.1 0.3,-0.2 0.5,-0.4 0.2,-0.2 0.4,-0.4 0.5,-0.7 0,0 0,0 0.1,-0.1 0,0 0,0 0,0 0,0 0,0 0,0 0.1,-0.2 0.2,-0.5 0.3,-0.8 0,-0.1 0,-0.1 0.1,-0.2 0,-0.2 0.1,-0.4 0.1,-0.7 0,0 0,-0.1 0,-0.1 v -49.7 c 0,-1 -0.7,-2.2 -1.8,-2.9 z m -5.4,46.6 -14.3,-8.3 v -20.6 l 14.3,-8.3 z m -21.5,-24.8 v 16.5 l -14.3,8.3 v -16.5 z m -14.3,33.1 17.9,-10.4 14.3,8.3 -32.2,18.6 z"
         id="path28"
         inkscape:connector-curvature="0" />
      <path
         d="m 627.2,453.4 c 0.6,0.3 1.2,0.5 1.8,0.5 0.6,0 1.2,-0.2 1.8,-0.5 l 43,-24.8 c 0,0 0,0 0,0 v 0 c 0.1,-0.1 0.2,-0.1 0.2,-0.2 0.2,-0.1 0.3,-0.2 0.5,-0.4 0.2,-0.2 0.4,-0.5 0.6,-0.8 0.1,-0.2 0.2,-0.5 0.3,-0.8 0,-0.1 0,-0.1 0.1,-0.2 0,-0.2 0.1,-0.4 0.1,-0.6 0,0 0,-0.1 0,-0.1 v -49.6 c 0,-1.3 -0.7,-2.5 -1.8,-3.1 -1.1,-0.6 -2.5,-0.6 -3.6,0 l -43,24.8 c -1.1,0.6 -1.8,1.8 -1.8,3.1 v 49.6 c 0,1.2 0.7,2.4 1.8,3.1 z m 5.4,-25.9 17.9,-10.3 14.3,8.3 -32.2,18.5 z m 35.8,-8.3 -14.3,-8.3 v -20.7 l 14.3,-8.3 z m -21.5,-24.8 v 16.5 l -14.3,8.3 v -16.5 z"
         id="path30"
         inkscape:connector-curvature="0" />
      <path
         d="m 539.4,499.9 c 0,1.3 0.7,2.5 1.8,3.1 0.6,0.3 1.2,0.5 1.8,0.5 0.6,0 1.2,-0.2 1.8,-0.5 l 43,-24.8 c 0,0 0,0 0,0 v 0 c 0.1,-0.1 0.2,-0.1 0.2,-0.2 0.2,-0.1 0.3,-0.2 0.5,-0.4 0.2,-0.2 0.4,-0.5 0.6,-0.8 0.1,-0.2 0.2,-0.5 0.3,-0.8 0,-0.1 0,-0.1 0.1,-0.2 0,-0.2 0.1,-0.4 0.1,-0.6 0,0 0,-0.1 0,-0.1 v -49.6 c 0,-1.3 -0.7,-2.5 -1.8,-3.1 -1.1,-0.6 -2.5,-0.6 -3.6,0 l -20.9,12.1 c -0.4,0.2 -0.9,0.4 -1.2,0.7 l -20.9,12 c -1.1,0.6 -1.8,1.8 -1.8,3.1 v 23.9 c -0.2,0.7 -0.2,1.4 0,2.1 z m 7.2,-22.8 17.8,-10.4 14.4,8.3 -32.2,18.6 z m 35.8,-8.2 -14.4,-8.3 V 440 l 14.4,-8.3 z m -21.6,-24.8 v 16.5 l -14.3,8.3 v -16.5 z"
         id="path32"
         inkscape:connector-curvature="0" />
      <path
         d="m 627.2,354.1 c 0.6,0.3 1.2,0.5 1.8,0.5 0.6,0 1.2,-0.2 1.8,-0.5 l 43,-24.8 c 0,0 0,0 0,0 v 0 c 0.1,-0.1 0.2,-0.1 0.2,-0.2 0.2,-0.1 0.3,-0.2 0.5,-0.4 0.2,-0.2 0.4,-0.5 0.6,-0.8 0.1,-0.2 0.2,-0.5 0.3,-0.8 0,-0.1 0,-0.1 0.1,-0.2 0,-0.2 0.1,-0.4 0.1,-0.6 0,0 0,-0.1 0,-0.1 v -49.7 c 0,-1.3 -0.7,-2.5 -1.8,-3.1 -1.1,-0.6 -2.5,-0.6 -3.6,0 l -43,24.8 c -1.1,0.6 -1.8,1.8 -1.8,3.1 v 49.6 c 0,1.3 0.7,2.5 1.8,3.2 z m 5.4,-25.8 17.9,-10.4 14.3,8.3 -32.3,18.6 v -16.5 z m 35.8,-8.4 -14.3,-8.3 V 291 l 14.3,-8.3 z m -21.5,-24.8 v 16.6 l -14.3,8.3 v -16.6 z"
         id="path34"
         inkscape:connector-curvature="0" />
      <path
         d="m 329.8,372.7 -43,-24.8 c -1.1,-0.6 -2.5,-0.6 -3.6,0 -1.1,0.6 -1.8,1.8 -1.8,3.1 v 49.7 c 0,0 0,0.1 0,0.1 0,0.2 0,0.4 0.1,0.6 0,0.1 0,0.2 0.1,0.2 0.1,0.3 0.2,0.5 0.3,0.8 0.2,0.3 0.4,0.5 0.6,0.8 0.1,0.1 0.3,0.2 0.4,0.3 0.1,0.1 0.2,0.2 0.3,0.2 v 0 c 0,0 0,0 0,0 l 43,24.8 c 0.6,0.3 1.2,0.5 1.8,0.5 0.6,0 1.2,-0.2 1.8,-0.5 1.1,-0.6 1.8,-1.8 1.8,-3.1 v -24.8 c 0,-0.1 0,-0.2 0,-0.4 v -24.5 c 0,-1.2 -0.7,-2.4 -1.8,-3 z m -5.4,21.7 -14.3,-8.3 v -16.6 l 14.3,8.3 z m -21.5,-29 v 20.7 l -14.3,8.3 v -37.2 z m -10.7,35.2 14.3,-8.3 17.9,10.3 v 16.6 z"
         id="path36"
         inkscape:connector-curvature="0" />
      <path
         d="m 458.8,447.2 -86,-49.7 c -1.1,-0.6 -2.5,-0.6 -3.6,0 -1.1,0.6 -1.8,1.8 -1.8,3.1 v 49.6 c 0,0 0,0.1 0,0.1 0,0.2 0,0.4 0.1,0.6 0,0.1 0,0.2 0.1,0.2 0.1,0.3 0.2,0.5 0.3,0.8 0.2,0.3 0.4,0.5 0.6,0.8 0.1,0.1 0.3,0.3 0.5,0.4 0.1,0.1 0.2,0.1 0.3,0.2 v 0 c 0,0 0,0 0,0 l 86,49.6 c 0.6,0.3 1.2,0.5 1.8,0.5 0.6,0 1.2,-0.2 1.8,-0.5 1.1,-0.6 1.8,-1.8 1.8,-3.1 v -49.6 c -0.1,-1.2 -0.8,-2.4 -1.9,-3 z m -5.4,21.7 -57.3,-33.1 v -16.6 l 57.3,33.1 z m -64.5,-53.8 v 20.7 l -14.3,8.3 v -37.2 z m -10.7,35.1 14.3,-8.3 60.9,35.2 v 16.5 z"
         id="path38"
         inkscape:connector-curvature="0" />
      <path
         d="m 458.8,546.5 -43.1,-24.7 c -1.1,-0.6 -2.5,-0.6 -3.6,0 -1.1,0.6 -1.8,1.8 -1.8,3.1 v 49.5 c 0,0 0,0.1 0,0.1 0,0.2 0,0.4 0.1,0.6 0,0.1 0,0.1 0,0.2 0.1,0.3 0.2,0.5 0.3,0.8 0,0 0,0 0,0 0.2,0.3 0.4,0.5 0.6,0.8 0.1,0.1 0.3,0.2 0.5,0.4 0.1,0.1 0.2,0.2 0.3,0.2 v 0 c 0,0 0,0 0,0 l 43.1,24.9 c 0.6,0.3 1.2,0.5 1.8,0.5 0.6,0 1.2,-0.2 1.8,-0.5 1.1,-0.6 1.8,-1.8 1.8,-3.1 v -49.6 c 0,-1.4 -0.7,-2.6 -1.8,-3.2 z m -5.4,21.7 -14.4,-8.3 v -16.5 l 14.4,8.3 z m -21.6,-28.9 v 20.6 l -14.4,8.3 V 531 Z m -10.8,35 14.4,-8.2 18,10.4 V 593 Z"
         id="path40"
         inkscape:connector-curvature="0" />
      <path
         d="m 458.8,645.7 -86,-49.6 c -1.1,-0.6 -2.5,-0.6 -3.6,0 -1.1,0.6 -1.8,1.8 -1.8,3.1 v 49.6 c 0,0 0,0.1 0,0.1 0,0.2 0,0.4 0.1,0.6 0,0.1 0,0.2 0.1,0.2 0.1,0.3 0.2,0.5 0.3,0.8 0.2,0.3 0.4,0.5 0.6,0.8 0.1,0.1 0.3,0.2 0.4,0.3 0.1,0.1 0.2,0.2 0.3,0.2 v 0 c 0,0 0,0 0,0 l 85.9,49.7 c 0.6,0.3 1.2,0.5 1.8,0.5 0.6,0 1.2,-0.2 1.8,-0.5 1.1,-0.6 1.8,-1.8 1.8,-3.1 v -49.7 c 0.1,-1.1 -0.6,-2.3 -1.7,-3 z m -5.4,21.9 -57.3,-33.2 v -16.6 l 57.3,33.1 z m -64.5,-53.9 v 20.7 l -14.3,8.3 v -37.2 z m -10.7,35.2 14.3,-8.3 60.9,35.2 v 16.5 z"
         id="path42"
         inkscape:connector-curvature="0" />
      <path
         d="m 458.8,745.1 -43.1,-24.9 c -1.1,-0.6 -2.5,-0.6 -3.6,0 -1.1,0.6 -1.8,1.8 -1.8,3.1 V 773 c 0,0 0,0.1 0,0.1 0,0.2 0,0.4 0.1,0.6 0,0.1 0,0.1 0,0.2 0.1,0.3 0.2,0.5 0.3,0.8 0,0 0,0 0,0 0.2,0.3 0.4,0.5 0.6,0.7 0.2,0.2 0.4,0.3 0.6,0.4 0.1,0 0.1,0.1 0.2,0.1 v 0 c 0,0 0,0 0,0 l 43.1,24.8 c 0.6,0.3 1.2,0.5 1.8,0.5 0.6,0 1.2,-0.2 1.8,-0.5 1.1,-0.6 1.8,-1.8 1.8,-3.1 v -49.7 c 0,-1 -0.7,-2.2 -1.8,-2.8 z m -5.4,21.8 -14.4,-8.3 V 742 l 14.4,8.3 z m -21.6,-29.1 v 20.8 l -14.4,8.3 V 729.5 Z M 421,773 l 14.4,-8.2 18,10.4 v 16.5 z"
         id="path44"
         inkscape:connector-curvature="0" />
      <path
         d="m 372.8,695.4 -86,-49.6 c -1.1,-0.6 -2.5,-0.6 -3.6,0 -1.1,0.6 -1.8,1.8 -1.8,3.1 v 49.7 c 0,0 0,0.1 0,0.1 0,0.2 0,0.4 0.1,0.6 0,0.1 0,0.1 0.1,0.2 0.1,0.3 0.2,0.5 0.3,0.8 0.2,0.3 0.4,0.5 0.6,0.8 0.1,0.1 0.3,0.2 0.5,0.4 0.1,0.1 0.2,0.1 0.3,0.2 v 0 c 0,0 0,0 0,0 l 86,49.6 c 0.6,0.3 1.2,0.5 1.8,0.5 0.6,0 1.2,-0.2 1.8,-0.5 1.1,-0.6 1.8,-1.8 1.8,-3.1 v -49.7 c -0.1,-1.3 -0.8,-2.5 -1.9,-3.1 z M 367.4,717 310,684 v -16.6 l 57.4,33.1 z M 302.9,663.3 V 684 l -14.3,8.3 V 655 Z m -10.7,35.2 14.3,-8.3 60.9,35.1 V 742 Z"
         id="path46"
         inkscape:connector-curvature="0" />
      <path
         d="m 281.5,600 c 0,0.1 0,0.1 0,0.2 0.1,0.3 0.2,0.5 0.3,0.8 0,0 0.1,0.1 0.1,0.1 0.1,0.2 0.3,0.5 0.5,0.7 0.2,0.2 0.3,0.3 0.5,0.4 0.1,0.1 0.1,0.1 0.2,0.2 v 0 c 0,0 0,0 0,0 l 43,24.8 c 0.6,0.3 1.2,0.5 1.8,0.5 0.6,0 1.2,-0.2 1.8,-0.5 1.1,-0.6 1.8,-1.8 1.8,-3.1 v -49.6 c 0,-1.3 -0.7,-2.5 -1.8,-3.1 l -43,-24.8 c -1.1,-0.6 -2.5,-0.6 -3.6,0 -1.1,0.6 -1.8,1.8 -1.8,3.1 v 49.7 c 0,0 0,0.1 0,0.1 0.1,0.1 0.2,0.3 0.2,0.5 z m 10.7,-0.8 14.3,-8.3 17.9,10.3 v 16.6 z m 32.2,-6.2 -14.3,-8.3 v -16.6 l 14.3,8.3 z m -21.5,-29 v 20.7 l -14.3,8.3 v -37.2 z"
         id="path48"
         inkscape:connector-curvature="0" />
      <path
         d="m 281.5,500.7 c 0,0.1 0,0.1 0.1,0.2 0.1,0.3 0.2,0.5 0.3,0.8 0.2,0.3 0.4,0.5 0.6,0.8 0.1,0.1 0.3,0.3 0.5,0.4 0.1,0.1 0.2,0.1 0.2,0.2 v 0 c 0,0 0,0 0,0 l 86,49.6 c 0.6,0.3 1.2,0.5 1.8,0.5 0.6,0 1.2,-0.2 1.8,-0.5 1.1,-0.6 1.8,-1.8 1.8,-3.1 V 500 c 0,-1.3 -0.7,-2.5 -1.8,-3.1 l -86,-49.7 c -1.1,-0.6 -2.5,-0.6 -3.6,0 -1.1,0.6 -1.8,1.8 -1.8,3.1 V 500 c 0,0 0,0.1 0,0.1 0,0.2 0.1,0.4 0.1,0.6 z m 10.7,-0.8 14.3,-8.3 60.9,35.3 v 16.4 z m 75.2,18.8 -57.3,-33.3 v -16.6 l 57.4,33.1 z m -64.5,-54 v 20.7 l -14.3,8.3 v -37.2 z"
         id="path50"
         inkscape:connector-curvature="0" />
      <path
         d="m 410.4,376.5 c 0,0.1 0,0.1 0,0.2 0.1,0.3 0.2,0.5 0.3,0.8 0,0 0,0 0,0 0.2,0.3 0.4,0.5 0.6,0.7 0.1,0.1 0.3,0.3 0.5,0.4 0.1,0.1 0.2,0.1 0.3,0.2 v 0 c 0,0 0,0 0,0 l 43.1,24.9 c 0.6,0.3 1.2,0.5 1.8,0.5 0.6,0 1.2,-0.2 1.8,-0.5 1.1,-0.6 1.8,-1.8 1.8,-3.1 v -49.7 c 0,-1.3 -0.7,-2.5 -1.8,-3.1 l -43.1,-24.7 c -1.1,-0.6 -2.5,-0.6 -3.6,0 -1.1,0.6 -1.8,1.8 -1.8,3.1 v 49.5 c 0,0 0,0.1 0,0.1 0,0.2 0,0.5 0.1,0.7 z m 10.6,-0.8 14.5,-8.3 17.9,10.4 v 16.5 z m 32.4,-6.1 -14.3,-8.3 v -16.4 l 14.3,8.2 z m -21.5,-28.9 v 20.5 l -14.5,8.3 v -37.1 z"
         id="path52"
         inkscape:connector-curvature="0" />
      <path
         d="m 281.5,302.1 c 0,0.1 0,0.1 0,0.2 0.1,0.3 0.2,0.5 0.3,0.8 0,0 0,0 0,0 0.2,0.3 0.3,0.5 0.6,0.7 0.2,0.2 0.3,0.3 0.5,0.4 0.1,0.1 0.1,0.1 0.2,0.2 v 0 c 0,0 0,0 0,0 l 86,49.6 c 0.6,0.3 1.2,0.5 1.8,0.5 0.6,0 1.2,-0.2 1.8,-0.5 1.1,-0.6 1.8,-1.8 1.8,-3.1 v -49.6 c 0,-1.3 -0.7,-2.5 -1.8,-3.1 l -86,-49.6 c -1.1,-0.6 -2.5,-0.6 -3.6,0 -1.1,0.6 -1.8,1.8 -1.8,3.1 v 49.6 c 0,0 0,0.1 0,0.1 0.2,0.3 0.2,0.5 0.2,0.7 z m 10.7,-0.8 14.3,-8.3 60.9,35.3 v 16.4 z m 75.2,18.8 -57.3,-33.3 v -16.6 l 57.3,33.1 z m -64.5,-54 v 20.7 l -14.3,8.3 v -37.2 z"
         id="path54"
         inkscape:connector-curvature="0" />
      <path
         d="m 539.4,376.7 v 23.9 c 0,1.3 0.7,2.5 1.8,3.1 0.6,0.3 1.2,0.5 1.8,0.5 0.6,0 1.2,-0.2 1.8,-0.5 l 42.8,-24.8 c 0,0 0,0 0,0 v 0 c 0.1,-0.1 0.2,-0.1 0.3,-0.2 0.2,-0.1 0.3,-0.2 0.5,-0.4 0.2,-0.2 0.3,-0.3 0.4,-0.5 0.1,-0.1 0.1,-0.1 0.2,-0.2 0,0 0,0 0,0 0,0 0,0 0,-0.1 0.1,-0.2 0.2,-0.5 0.3,-0.7 0,-0.1 0,-0.2 0.1,-0.2 0,-0.2 0.1,-0.4 0.1,-0.6 0,0 0,-0.1 0,-0.1 v -49.6 c 0,-1.3 -0.7,-2.5 -1.8,-3.1 -1.1,-0.6 -2.5,-0.6 -3.6,0 l -20.8,12 c -0.4,0.1 -0.8,0.4 -1.2,0.7 L 541.2,348 c -1.1,0.6 -1.8,1.8 -1.8,3.1 v 23.7 c -0.2,0.5 -0.2,1.2 0,1.9 z m 7.2,1 17.8,-10.3 14.3,8.4 -32.1,18.6 z m 35.7,-8.2 -14.3,-8.3 v -20.5 l 14.3,-8.2 z m -21.5,-24.7 v 16.4 l -14.3,8.2 V 353 Z"
         id="path56"
         inkscape:connector-curvature="0" />
      <path
         d="m 625.4,525.8 v 23.7 c 0,1.3 0.7,2.5 1.8,3.1 0.6,0.3 1.2,0.5 1.8,0.5 0.6,0 1.2,-0.2 1.8,-0.5 l 43,-24.8 c 0,0 0,0 0,0 v 0 c 0.1,-0.1 0.2,-0.1 0.2,-0.2 0.2,-0.1 0.3,-0.2 0.5,-0.4 0.2,-0.2 0.4,-0.5 0.6,-0.8 0.1,-0.2 0.2,-0.5 0.3,-0.8 0,-0.1 0,-0.1 0.1,-0.2 0,-0.2 0.1,-0.4 0.1,-0.6 0,0 0,-0.1 0,-0.1 v -49.6 c 0,-1.3 -0.7,-2.5 -1.8,-3.1 -1.1,-0.6 -2.5,-0.6 -3.6,0 l -43,24.8 c -1.1,0.6 -1.8,1.8 -1.8,3.1 v 23.9 c -0.2,0.7 -0.2,1.4 0,2 z m 7.2,1 17.9,-10.3 14.3,8.3 -32.3,18.6 v -16.6 z m 35.8,-8.3 -14.3,-8.3 v -20.7 l 14.3,-8.3 z m -21.5,-24.8 v 16.6 l -14.3,8.3 V 502 Z"
         id="path58"
         inkscape:connector-curvature="0" />
    </g>
    <rect
       rx="0"
       ry="14.904907"
       y="761.4043"
       x="111.98885"
       height="192.7787"
       width="209.80664"
       id="rect248"
       style="opacity:1;fill:#ffffff;stroke-width:8.22736"
       transform="matrix(0.99999244,0.0038897,-0.00454696,0.99998966,0,0)" />
    <g
       id="g103"
       transform="matrix(0.76863408,0,0,0.76863408,-262.17057,555.36152)">
      <path
         id="path89"
         d="m 847.6,605.4 c 0,-0.3 0,-0.6 -0.1,-0.8 0,0 0,0 0,0 -0.1,-0.3 -0.2,-0.5 -0.3,-0.7 0,-0.1 -0.1,-0.1 -0.1,-0.2 -0.1,-0.2 -0.2,-0.3 -0.4,-0.5 -0.1,-0.1 -0.1,-0.1 -0.2,-0.2 -0.2,-0.2 -0.4,-0.4 -0.7,-0.5 L 761.6,553.9 V 384.3 l 19.7,-11.4 c 1.1,-0.6 1.8,-1.8 1.8,-3.1 V 345 c 0,0 0,-0.1 0,-0.1 0,-0.2 0,-0.4 -0.1,-0.6 0,-0.1 0,-0.1 -0.1,-0.2 -0.1,-0.3 -0.2,-0.5 -0.3,-0.8 0,0 0,0 0,0 -0.1,-0.3 -0.3,-0.5 -0.5,-0.7 -0.1,-0.1 -0.1,-0.1 -0.2,-0.2 -0.2,-0.2 -0.3,-0.3 -0.5,-0.4 0,0 -0.1,-0.1 -0.1,-0.1 l -258,-149 c -1.1,-0.6 -2.5,-0.6 -3.6,0 L 457,229 351.3,168 c -1.1,-0.6 -2.5,-0.6 -3.6,0 l -172,99.3 c -0.3,0.1 -0.5,0.3 -0.7,0.5 -0.1,0.1 -0.1,0.1 -0.2,0.2 -0.1,0.2 -0.3,0.3 -0.4,0.5 0,0.1 -0.1,0.1 -0.1,0.2 -0.1,0.2 -0.2,0.5 -0.3,0.7 0,0 0,0 0,0 -0.1,0.3 -0.1,0.6 -0.1,0.8 0,0 0,0.1 0,0.1 v 24.8 c 0,1.3 0.7,2.5 1.8,3.1 l 19.7,11.4 v 268.9 l -41.2,23.8 c -0.3,0.1 -0.5,0.3 -0.7,0.5 -0.1,0.1 -0.1,0.1 -0.2,0.2 -0.1,0.2 -0.3,0.3 -0.4,0.5 0,0.1 -0.1,0.1 -0.1,0.2 -0.1,0.2 -0.2,0.5 -0.3,0.8 0,0 0,0 0,0 -0.1,0.3 -0.1,0.6 -0.1,0.8 0,0 0,0.1 0,0.1 v 24.8 c 0,1.3 0.7,2.5 1.8,3.1 l 344,198.6 c 0.6,0.3 1.2,0.5 1.8,0.5 0.6,0 1.2,-0.2 1.8,-0.5 l 344,-198.6 c 1.1,-0.6 1.8,-1.8 1.8,-3.1 v -24.8 c 0,0.1 0,0 0,0 z M 756.2,379 654.1,438 V 421.4 L 775.9,351 v 16.6 z M 609.3,565.2 c -1.1,-0.6 -2.5,-0.6 -3.6,0 l -64.5,37.2 c -1.1,0.6 -1.8,1.8 -1.8,3.1 v 146.9 l -35.8,20.7 V 483.5 l 143.3,-82.8 v 289.6 l -35.8,20.3 V 568.3 c 0,-1.3 -0.7,-2.5 -1.8,-3.1 z m -5.4,149.5 -57.3,33.5 V 607.6 l 57.3,-33.1 z M 729.3,344.8 715,353.1 525.1,243.5 V 227 Z M 517.9,243.5 500,253.8 485.7,245.5 518,226.9 v 16.6 z m 3.6,6.2 186.3,107.6 -32.3,18.6 v -18.6 c 0,0 0,-0.1 0,-0.1 0,-0.3 0,-0.6 -0.1,-0.8 0,0 0,0 0,0 -0.1,-0.3 -0.2,-0.5 -0.3,-0.7 0,-0.1 -0.1,-0.1 -0.1,-0.2 -0.1,-0.2 -0.2,-0.3 -0.4,-0.5 -0.1,-0.1 -0.1,-0.1 -0.2,-0.2 -0.2,-0.2 -0.4,-0.4 -0.7,-0.5 L 507.2,258 Z M 503.6,475.2 V 458.6 L 668.4,363.4 V 380 Z m 150.5,45.5 57.3,-33.1 V 529 l -57.3,33.1 z m 0,49.6 62.7,-36.2 c 1.1,-0.6 1.8,-1.8 1.8,-3.1 v -49.7 c 0,-1.3 -0.7,-2.5 -1.8,-3.1 -1.1,-0.6 -2.5,-0.6 -3.6,0 l -59.1,34.1 v -16.5 l 78.8,-45.5 v 91 l -78.8,45.5 z m 0,24.9 84.2,-48.6 c 1.1,-0.6 1.8,-1.8 1.8,-3.1 v -99.3 c 0,-1.3 -0.7,-2.5 -1.8,-3.1 -1.1,-0.6 -2.5,-0.6 -3.6,0 l -80.6,46.5 V 446.2 L 754.4,388.3 V 578.6 L 654.1,636.5 Z M 521.5,200 772.3,344.8 654.1,413.1 v -16.6 l 19.7,-11.4 42.9,-24.8 c 0,0 0,0 0.1,0 l 21.5,-12.4 c 1.1,-0.6 1.8,-1.8 1.8,-3.1 0,-1.3 -0.7,-2.5 -1.8,-3.1 l -215,-124.1 c 0,0 -0.1,0 -0.1,0 -0.2,-0.1 -0.4,-0.2 -0.6,-0.3 -0.1,0 -0.1,0 -0.2,-0.1 -0.3,-0.1 -0.5,-0.1 -0.8,-0.1 0,0 0,0 0,0 -0.3,0 -0.5,0 -0.8,0.1 -0.1,0 -0.2,0 -0.2,0.1 -0.2,0.1 -0.4,0.1 -0.6,0.2 0,0 -0.1,0 -0.1,0.1 l -41.2,23.8 -14.3,-8.3 z m -172,-24.8 315.3,182 L 500,452.4 184.7,270.4 Z M 181.1,276.6 496.4,458.7 v 16.6 L 181.1,293.1 Z M 496.4,483.5 V 773.1 L 202.6,603.4 V 313.8 Z m -299.2,125.1 301,173.8 c 0.6,0.3 1.2,0.5 1.8,0.5 0,0 0,0 0,0 0,0 0,0 0,0 0.1,0 0.2,0 0.3,0 0.2,0 0.4,0 0.6,-0.1 0.1,0 0.1,-0.1 0.2,-0.1 0.2,-0.1 0.5,-0.2 0.7,-0.3 0,0 0,0 0,0 l 43,-24.8 c 0,0 0,0 0,0 0,0 0,0 0,0 l 64.5,-37.7 43,-24.3 c 1.1,-0.6 1.8,-1.8 1.8,-3.1 v -47.6 l 105.7,-61 c 1.1,-0.6 1.8,-1.8 1.8,-3.1 V 562.2 L 836.9,605.7 500,800 163.2,605.5 195.5,586.9 v 18.6 c -0.1,1.3 0.6,2.5 1.7,3.1 z m -37.6,3.1 336.8,194.5 v 16.6 L 159.6,628.3 Z M 840.4,628.3 503.6,822.7 V 806.1 L 840.4,611.6 Z"
         inkscape:connector-curvature="0" />
      <path
         id="path91"
         d="m 218.7,273.5 279.5,161.4 c 0.6,0.3 1.2,0.5 1.8,0.5 0.6,0 1.2,-0.2 1.8,-0.5 l 129,-74.5 c 1.1,-0.6 1.8,-1.8 1.8,-3.1 0,-1.3 -0.7,-2.5 -1.8,-3.1 L 351.3,192.8 c 0,0 -0.1,0 -0.1,-0.1 -0.2,-0.1 -0.4,-0.2 -0.6,-0.3 -0.1,0 -0.1,-0.1 -0.2,-0.1 -0.3,-0.1 -0.5,-0.1 -0.8,-0.1 0,0 0,0 0,0 -0.3,0 -0.6,0 -0.8,0.1 -0.1,0 -0.1,0 -0.2,0.1 -0.2,0.1 -0.4,0.1 -0.6,0.3 0,0 -0.1,0 -0.1,0.1 l -129,74.5 c -1.1,0.6 -1.8,1.8 -1.8,3.1 -0.2,1.2 0.5,2.4 1.6,3.1 z M 500,427.6 249.2,282.8 349.5,224.9 600.3,369.7 Z M 607.5,365.5 353.1,218.6 V 202 L 621.8,357.2 Z M 345.9,202.1 v 16.6 l -103.9,60 -14.3,-8.3 z"
         inkscape:connector-curvature="0" />
      <path
         id="path93"
         d="m 611.1,469 c 0,-1.3 -0.7,-2.5 -1.8,-3.1 -1.1,-0.6 -2.5,-0.6 -3.6,0 l -64.5,37.2 c -1.1,0.6 -1.8,1.8 -1.8,3.1 v 49.7 c 0,1.3 0.7,2.5 1.8,3.1 0.6,0.3 1.2,0.5 1.8,0.5 0.6,0 1.2,-0.2 1.8,-0.5 l 64.5,-37.2 c 1.1,-0.6 1.8,-1.8 1.8,-3.1 z m -7.2,47.6 -57.3,33.1 v -41.4 l 57.3,-33.1 z"
         inkscape:connector-curvature="0" />
      <path
         id="path95"
         d="m 369.2,658.3 86,49.6 c 0.6,0.3 1.2,0.5 1.8,0.5 0.6,0 1.2,-0.2 1.8,-0.5 1.1,-0.6 1.8,-1.8 1.8,-3.1 V 506.2 c 0,-1.3 -0.7,-2.5 -1.8,-3.1 l -86,-49.7 c -1.1,-0.6 -2.5,-0.6 -3.6,0 -1.1,0.6 -1.8,1.8 -1.8,3.1 v 198.6 c 0,1.3 0.7,2.5 1.8,3.2 z m 5.4,-195.5 78.8,45.5 v 190.3 l -78.8,-45.5 z"
         inkscape:connector-curvature="0" />
      <path
         id="path97"
         d="m 437.3,515.5 -43,-24.8 c -1.1,-0.6 -2.5,-0.6 -3.6,0 -1.1,0.6 -1.8,1.8 -1.8,3.1 v 149 c 0,1.3 0.7,2.5 1.8,3.1 l 43,24.8 c 0.6,0.3 1.2,0.5 1.8,0.5 0.6,0 1.2,-0.2 1.8,-0.5 1.1,-0.6 1.8,-1.8 1.8,-3.1 v -149 c 0,-1.3 -0.7,-2.4 -1.8,-3.1 z m -5.4,145.9 -35.8,-20.7 V 500 l 35.8,20.7 z"
         inkscape:connector-curvature="0" />
      <path
         id="path99"
         d="m 240.2,583.8 86,49.7 c 0.6,0.3 1.2,0.5 1.8,0.5 0.6,0 1.2,-0.2 1.8,-0.5 1.1,-0.6 1.8,-1.8 1.8,-3.1 V 431.7 c 0,-1.3 -0.7,-2.5 -1.8,-3.1 l -86,-49.6 c -1.1,-0.6 -2.5,-0.6 -3.6,0 -1.1,0.6 -1.8,1.8 -1.8,3.1 v 198.6 c 0,1.3 0.7,2.4 1.8,3.1 z m 5.4,-195.5 78.8,45.5 v 190.3 l -78.8,-45.5 z"
         inkscape:connector-curvature="0" />
      <path
         id="path101"
         d="m 308.3,441 -43,-24.8 c -1.1,-0.6 -2.5,-0.6 -3.6,0 -1.1,0.6 -1.8,1.8 -1.8,3.1 v 149 c 0,1.3 0.7,2.5 1.8,3.1 l 43,24.8 c 0.6,0.3 1.2,0.5 1.8,0.5 0.6,0 1.2,-0.2 1.8,-0.5 1.1,-0.6 1.8,-1.8 1.8,-3.1 v -149 c 0,-1.2 -0.7,-2.4 -1.8,-3.1 z m -5.4,145.9 -35.8,-20.7 V 425.5 l 35.8,20.7 z"
         inkscape:connector-curvature="0" />
    </g>
  </g>
</svg>
